<svg width="149" height="178" viewBox="0 0 149 178" fill="none" xmlns="http://www.w3.org/2000/svg">
<path fill-rule="evenodd" clip-rule="evenodd" d="M56.2907 150.437C42.0765 141.025 34.8017 107.65 40.963 81.0495C45.6746 48.7156 70.035 23.7282 89.9147 26.177C110.668 28.1132 121.43 67.5878 111.165 99.2578C104.952 126.083 83.4044 151.48 66.4252 152.982C87.9172 154.285 110.259 131.237 117.881 98.6895C126.065 63.7364 114.173 31.0632 91.3192 25.7118C68.4652 20.3605 43.3037 44.3575 35.1193 79.3105C27.6052 111.401 37.0135 141.569 56.2907 150.437Z" fill="#262626"/>
<path fill-rule="evenodd" clip-rule="evenodd" d="M148.579 22.9473L29.7746 0L0 154.151L118.804 177.098L148.579 22.9473ZM61.5 153C82.4717 157.911 110.104 133.002 118.289 98.049C126.475 63.0961 114.472 31.9112 93.5 27C72.5283 22.0889 44.6852 40.0471 36.5 75C28.3147 109.953 40.5282 148.089 61.5 153Z" fill="white"/>
</svg>
