<svg width="178" height="198" viewBox="0 0 178 198" fill="none" xmlns="http://www.w3.org/2000/svg">
<path fill-rule="evenodd" clip-rule="evenodd" d="M64.5682 171.86C47.1964 160.357 38.3057 119.569 45.8357 87.0585C51.5939 47.5418 81.3658 17.0036 105.662 19.9963C131.025 22.3627 144.178 70.6063 131.633 109.312C124.039 142.096 97.7054 173.135 76.9544 174.97C103.221 176.563 130.526 148.395 139.84 108.617C149.843 65.8993 135.309 25.9679 107.378 19.4278C79.4473 12.8877 48.6963 42.2155 38.6937 84.9332C29.5105 124.152 41.0087 161.022 64.5682 171.86Z" fill="#262626"/>
<path fill-rule="evenodd" clip-rule="evenodd" d="M177.234 27.8373L33.3341 0.0426636L0.575562 169.642L144.475 197.437L177.234 27.8373ZM69.5195 178.024C95.8613 184.193 130.569 152.905 140.851 109.002C151.132 65.0991 136.055 25.9288 109.714 19.7601C83.3718 13.5914 48.3991 36.1481 38.1179 80.0511C27.8367 123.954 43.1777 171.855 69.5195 178.024Z" fill="white"/>
</svg>
